<svg width="44" height="29" viewBox="0 0 44 29" fill="none" xmlns="http://www.w3.org/2000/svg">
<path d="M20.4302 0.0805359C19.8036 0.243977 19.2316 0.584478 18.7549 1.06118C18.0739 1.75581 17.9241 2.23251 17.8968 3.66262L17.8832 4.95653L16.8345 5.2017C11.4137 6.45475 6.75557 10.0232 4.3993 14.7358C3.54123 16.4383 2.79212 19.1351 2.79212 20.5107C2.79212 20.7967 2.68316 20.9057 2.17922 21.11C1.48459 21.4096 0.721866 22.1315 0.299642 22.9078C0.0544804 23.3573 0 23.6706 0 24.7466C0 26.2584 0.217922 26.8032 1.19857 27.7021C2.34266 28.7645 0.994268 28.6964 21.7786 28.6964C39.0216 28.6964 40.3564 28.6828 40.9693 28.4648C42.9033 27.7702 43.9385 25.5774 43.3256 23.4935C43.0532 22.5401 42.127 21.4641 41.2826 21.1236L40.6833 20.8784L40.5334 19.6799C40.0704 16.1386 38.5177 13.0605 35.78 10.2956C33.342 7.85762 30.2911 6.12786 26.9406 5.29704L25.5377 4.94291V3.7171C25.5377 2.80456 25.4696 2.34147 25.2789 1.93287C24.9657 1.25186 24.271 0.58448 23.5628 0.284838C22.9635 0.0396767 21.0703 -0.0965252 20.4302 0.0805359ZM22.9907 1.96011C23.6581 2.30061 23.7535 2.51853 23.7671 3.63538V4.65689L21.6968 4.64327L19.613 4.62965L19.5721 3.86692C19.5176 2.91352 19.8173 2.24613 20.4029 1.94649C20.9886 1.66047 22.4323 1.66047 22.9907 1.96011ZM23.9986 6.49561C28.4116 7.08127 32.1571 8.93361 34.922 11.8892C36.175 13.2239 36.856 14.2182 37.6051 15.8118C38.2317 17.1465 38.6811 18.672 38.8309 19.9795L38.9263 20.7967H21.7241H4.52188L4.61722 19.9114C4.7398 18.672 5.29822 16.8469 5.93837 15.5121C8.32189 10.6497 13.7155 7.09489 19.6811 6.45475C20.7162 6.34579 22.9907 6.37303 23.9986 6.49561ZM40.765 22.8397C41.4051 23.2347 41.7456 23.8749 41.7456 24.6785C41.7456 25.5229 41.4051 26.2175 40.8059 26.6125L40.3428 26.9258H21.7377C3.41865 26.9258 3.13263 26.9258 2.68316 26.6534C1.93406 26.1903 1.67527 25.6455 1.72975 24.5559C1.78423 23.6706 1.79785 23.6025 2.35628 23.0985L2.9147 22.5673H21.6151C40.0295 22.5673 40.3155 22.5673 40.765 22.8397Z" fill="white"/>
<path d="M15.6359 9.01512C12.9664 10.0366 10.542 11.7391 9.03019 13.6187C8.44453 14.3678 8.39005 14.6811 8.78503 15.0761C9.3026 15.5936 9.65672 15.4438 11.0187 14.0682C12.803 12.2567 14.7234 11.0854 17.0252 10.3771C17.7879 10.1456 18.0195 10.0094 18.1693 9.70974C18.3327 9.36924 18.3191 9.28752 18.0876 8.96064C17.6926 8.44307 17.1069 8.45669 15.6359 9.01512Z" fill="white"/>
</svg>
