<svg width="25" height="25" viewBox="0 0 25 25" fill="none" xmlns="http://www.w3.org/2000/svg">
<g id="refresh-cw">
<path id="Vector" d="M23.9583 4.16675V10.4167H17.7083" stroke="#ED1B30" stroke-width="2" stroke-linecap="round" stroke-linejoin="round"/>
<path id="Vector_2" d="M1.04175 20.8333V14.5833H7.29175" stroke="#ED1B30" stroke-width="2" stroke-linecap="round" stroke-linejoin="round"/>
<path id="Vector_3" d="M1.04175 14.5833L5.87508 19.125C6.99461 20.2451 8.37964 21.0633 9.90092 21.5033C11.4222 21.9434 13.0302 21.9909 14.5748 21.6414C16.1194 21.2919 17.5503 20.5568 18.734 19.5047C19.9177 18.4527 20.8155 17.1179 21.3438 15.625M3.65633 9.37498C4.18463 7.88205 5.08251 6.54727 6.26619 5.4952C7.44987 4.44314 8.88077 3.70807 10.4254 3.35858C11.97 3.00909 13.578 3.05658 15.0992 3.49662C16.6205 3.93665 18.0056 4.75489 19.1251 5.87498L23.9584 10.4166C23.9584 10.4166 17.7349 3.1275 12.5265 3.1275C7.3182 3.1275 4.52886 5.73935 3.65633 9.37498Z" stroke="#ED1B30" stroke-width="2" stroke-linecap="round" stroke-linejoin="round"/>
</g>
</svg>
