<svg width="27" height="38" viewBox="0 0 27 38" fill="none" xmlns="http://www.w3.org/2000/svg">
<path d="M13.5 38C20.9558 38 27 33.25 27 24.9375C27 21.375 25.875 15.4375 21.375 10.6875C21.9375 14.25 18.5625 15.4375 18.5625 15.4375C20.25 9.5 15.75 1.1875 9 0C9.80357 4.75 10.125 9.5 4.5 14.25C1.6875 16.625 0 20.7312 0 24.9375C0 33.25 6.04416 38 13.5 38ZM13.5 35.625C9.77208 35.625 6.75 33.25 6.75 29.0938C6.75 27.3125 7.3125 24.3438 9.5625 21.9688C9.28125 23.75 11.25 24.9375 11.25 24.9375C10.4062 21.9688 12.375 17.2188 15.75 16.625C15.3482 19 15.1875 21.375 18 23.75C19.4062 24.9375 20.25 26.9906 20.25 29.0938C20.25 33.25 17.2279 35.625 13.5 35.625Z" fill="white"/>
</svg>
