<svg width="28" height="28" viewBox="0 0 28 28" fill="none" xmlns="http://www.w3.org/2000/svg">
<path d="M20.1872 24.5181C22.879 21.8263 24.544 18.1075 24.544 13.9999C24.544 9.89229 22.879 6.17354 20.1872 3.48169L18.9497 4.71913C21.3249 7.09428 22.794 10.3755 22.794 13.9999C22.794 17.6243 21.3249 20.9055 18.9497 23.2807L20.1872 24.5181Z" fill="white"/>
<path d="M17.7123 22.0432C19.7708 19.9848 21.044 17.141 21.044 13.9999C21.044 10.8588 19.7708 8.01503 17.7123 5.95656L16.4749 7.194C18.2167 8.93578 19.294 11.342 19.294 13.9999C19.294 16.6578 18.2167 19.064 16.4749 20.8058L17.7123 22.0432Z" fill="white"/>
<path d="M15.2374 19.5684C16.6625 18.1433 17.544 16.1745 17.544 13.9999C17.544 11.8253 16.6625 9.85653 15.2374 8.43144L14 9.66887C15.1084 10.7773 15.794 12.3085 15.794 13.9999C15.794 15.6913 15.1084 17.2225 14 18.3309L15.2374 19.5684Z" fill="white"/>
<path d="M11.754 6.21127C12.0572 6.35697 12.25 6.66355 12.25 6.99991V20.9999C12.25 21.3363 12.0572 21.6428 11.754 21.7885C11.4509 21.9343 11.091 21.8933 10.8284 21.6832L6.69307 18.3749H2.625C2.14175 18.3749 1.75 17.9832 1.75 17.4999V10.4999C1.75 10.0167 2.14175 9.62491 2.625 9.62491H6.69307L10.8284 6.31665C11.091 6.10653 11.4509 6.06556 11.754 6.21127Z" fill="white"/>
</svg>
